STARTFONT 2.1
FONT -sun-helmetcondensed-bold-i-semicondensed--12-120-75-75-p-55-adobe-fontspecific
SIZE 12 75 75
FONTBOUNDINGBOX 14 15 -2 -3

STARTPROPERTIES 28
FOUNDRY "sun"
FAMILY_NAME "helmetcondensed"
WEIGHT_NAME "bold"
SLANT "i"
SETWIDTH_NAME "semicondensed"
ADD_STYLE_NAME ""
PIXEL_SIZE 12
POINT_SIZE 120
RESOLUTION_X 75
RESOLUTION_Y 75
SPACING "p"
AVERAGE_WIDTH 55
CHARSET_REGISTRY "adobe"
CHARSET_ENCODING "fontspecific"
COPYRIGHT "© 1999 Sun Microsystems, Inc."
RAW_PIXELSIZE 1000
RAW_POINTSIZE 964
RAW_ASCENT 935
RAW_DESCENT 208
RAW_AVERAGE_WIDTH 4444
FACE_NAME "HelmetCondensedBoldItalic"
_XMBDFED_INFO "Edited with xmbdfed 2.4."
WEIGHT 10
X_HEIGHT -1
QUAD_WIDTH 7
DEFAULT_CHAR 4
FONT_DESCENT 3
FONT_ASCENT 12
ENDPROPERTIES

CHARS 209

STARTCHAR char32
ENCODING 32
SWIDTH 21 0
DWIDTH 3 0
BBX 0 0 0 0
BITMAP
ENDCHAR

STARTCHAR char33
ENCODING 33
SWIDTH 21 0
DWIDTH 3 0
BBX 3 9 0 0
BITMAP
20
20
20
40
40
40
40
00
80
ENDCHAR

STARTCHAR char34
ENCODING 34
SWIDTH 28 0
DWIDTH 4 0
BBX 4 3 1 6
BITMAP
50
50
A0
ENDCHAR

STARTCHAR char35
ENCODING 35
SWIDTH 50 0
DWIDTH 7 0
BBX 6 9 0 0
BITMAP
28
28
FC
28
28
78
C8
48
50
ENDCHAR

STARTCHAR char36
ENCODING 36
SWIDTH 43 0
DWIDTH 6 0
BBX 7 11 -1 -1
BITMAP
08
1C
2C
6E
28
18
1C
DC
DC
78
10
ENDCHAR

STARTCHAR char37
ENCODING 37
SWIDTH 71 0
DWIDTH 10 0
BBX 10 9 -1 0
BITMAP
3200
5A00
DA00
DD80
D6C0
7EC0
0EC0
16C0
1380
ENDCHAR

STARTCHAR char38
ENCODING 38
SWIDTH 43 0
DWIDTH 6 0
BBX 7 9 -1 0
BITMAP
1E
36
36
38
30
CA
CA
C6
7A
ENDCHAR

STARTCHAR char39
ENCODING 39
SWIDTH 14 0
DWIDTH 2 0
BBX 2 3 1 6
BITMAP
40
40
80
ENDCHAR

STARTCHAR char40
ENCODING 40
SWIDTH 28 0
DWIDTH 4 0
BBX 4 11 1 -2
BITMAP
20
20
40
40
C0
C0
C0
C0
C0
40
40
ENDCHAR

STARTCHAR char41
ENCODING 41
SWIDTH 28 0
DWIDTH 4 0
BBX 4 11 -2 -2
BITMAP
20
20
30
30
30
30
30
20
20
40
40
ENDCHAR

STARTCHAR char42
ENCODING 42
SWIDTH 35 0
DWIDTH 5 0
BBX 4 4 1 5
BITMAP
20
F0
60
60
ENDCHAR

STARTCHAR char43
ENCODING 43
SWIDTH 43 0
DWIDTH 6 0
BBX 6 5 0 1
BITMAP
30
30
FC
30
30
ENDCHAR

STARTCHAR char44
ENCODING 44
SWIDTH 14 0
DWIDTH 2 0
BBX 2 3 -1 -2
BITMAP
40
80
80
ENDCHAR

STARTCHAR char45
ENCODING 45
SWIDTH 35 0
DWIDTH 5 0
BBX 3 1 0 3
BITMAP
E0
ENDCHAR

STARTCHAR char46
ENCODING 46
SWIDTH 14 0
DWIDTH 2 0
BBX 1 1 0 0
BITMAP
80
ENDCHAR

STARTCHAR char47
ENCODING 47
SWIDTH 21 0
DWIDTH 3 0
BBX 6 9 -1 0
BITMAP
04
08
08
10
10
20
20
40
40
ENDCHAR

STARTCHAR char48
ENCODING 48
SWIDTH 43 0
DWIDTH 6 0
BBX 6 9 0 0
BITMAP
38
4C
4C
CC
8C
CC
C8
D8
70
ENDCHAR

STARTCHAR char49
ENCODING 49
SWIDTH 43 0
DWIDTH 6 0
BBX 3 9 1 0
BITMAP
20
E0
20
20
40
40
40
40
40
ENDCHAR

STARTCHAR char50
ENCODING 50
SWIDTH 43 0
DWIDTH 6 0
BBX 6 9 0 0
BITMAP
38
4C
44
0C
18
30
40
80
F0
ENDCHAR

STARTCHAR char51
ENCODING 51
SWIDTH 43 0
DWIDTH 6 0
BBX 7 9 -1 0
BITMAP
1C
26
06
06
18
04
04
C4
78
ENDCHAR

STARTCHAR char52
ENCODING 52
SWIDTH 43 0
DWIDTH 6 0
BBX 6 9 0 0
BITMAP
0C
18
18
28
48
90
F8
10
10
ENDCHAR

STARTCHAR char53
ENCODING 53
SWIDTH 43 0
DWIDTH 6 0
BBX 6 9 0 0
BITMAP
3C
20
40
78
4C
0C
0C
CC
78
ENDCHAR

STARTCHAR char54
ENCODING 54
SWIDTH 43 0
DWIDTH 6 0
BBX 6 9 0 0
BITMAP
38
68
40
F8
CC
CC
CC
CC
78
ENDCHAR

STARTCHAR char55
ENCODING 55
SWIDTH 43 0
DWIDTH 6 0
BBX 5 9 1 0
BITMAP
F8
10
10
20
40
40
40
80
80
ENDCHAR

STARTCHAR char56
ENCODING 56
SWIDTH 43 0
DWIDTH 6 0
BBX 7 9 -1 0
BITMAP
1C
26
36
36
38
E4
C4
E4
78
ENDCHAR

STARTCHAR char57
ENCODING 57
SWIDTH 43 0
DWIDTH 6 0
BBX 7 9 -1 0
BITMAP
1C
26
66
66
66
3E
04
CC
78
ENDCHAR

STARTCHAR char58
ENCODING 58
SWIDTH 21 0
DWIDTH 3 0
BBX 3 6 0 0
BITMAP
40
00
00
00
00
80
ENDCHAR

STARTCHAR char59
ENCODING 59
SWIDTH 21 0
DWIDTH 3 0
BBX 3 8 0 -2
BITMAP
40
00
00
00
00
80
80
80
ENDCHAR

STARTCHAR char60
ENCODING 60
SWIDTH 50 0
DWIDTH 7 0
BBX 7 6 0 0
BITMAP
0C
30
C0
60
18
06
ENDCHAR

STARTCHAR char61
ENCODING 61
SWIDTH 43 0
DWIDTH 6 0
BBX 6 3 0 2
BITMAP
FC
00
FC
ENDCHAR

STARTCHAR char62
ENCODING 62
SWIDTH 50 0
DWIDTH 7 0
BBX 7 6 0 0
BITMAP
E0
18
06
0C
30
C0
ENDCHAR

STARTCHAR char63
ENCODING 63
SWIDTH 35 0
DWIDTH 5 0
BBX 5 9 1 0
BITMAP
70
98
18
30
60
40
80
00
80
ENDCHAR

STARTCHAR char64
ENCODING 64
SWIDTH 27 0
DWIDTH 14 0
BBX 10 9 1 0
BITMAP
1F00
2080
7FC0
F3C0
F2C0
F2C0
7F00
2080
1F00
ENDCHAR

STARTCHAR char65
ENCODING 65
SWIDTH 43 0
DWIDTH 6 0
BBX 6 9 -1 0
BITMAP
08
14
14
34
24
64
7C
C4
8C
ENDCHAR

STARTCHAR char66
ENCODING 66
SWIDTH 43 0
DWIDTH 6 0
BBX 6 9 0 0
BITMAP
78
4C
4C
4C
70
88
88
88
F0
ENDCHAR

STARTCHAR char67
ENCODING 67
SWIDTH 43 0
DWIDTH 6 0
BBX 6 9 0 0
BITMAP
38
64
44
C0
C0
C0
C8
C8
70
ENDCHAR

STARTCHAR char68
ENCODING 68
SWIDTH 50 0
DWIDTH 7 0
BBX 7 9 0 0
BITMAP
7C
46
46
46
46
86
84
8C
F0
ENDCHAR

STARTCHAR char69
ENCODING 69
SWIDTH 35 0
DWIDTH 5 0
BBX 6 9 0 0
BITMAP
7C
40
40
40
78
80
80
80
F0
ENDCHAR

STARTCHAR char70
ENCODING 70
SWIDTH 35 0
DWIDTH 5 0
BBX 6 9 0 0
BITMAP
78
40
40
40
78
C0
80
80
80
ENDCHAR

STARTCHAR char71
ENCODING 71
SWIDTH 50 0
DWIDTH 7 0
BBX 7 9 0 0
BITMAP
38
64
44
C0
C0
DE
C4
CC
78
ENDCHAR

STARTCHAR char72
ENCODING 72
SWIDTH 50 0
DWIDTH 7 0
BBX 7 9 0 0
BITMAP
42
46
44
44
7C
84
88
88
88
ENDCHAR

STARTCHAR char73
ENCODING 73
SWIDTH 21 0
DWIDTH 3 0
BBX 3 9 0 0
BITMAP
20
60
40
40
40
40
80
80
80
ENDCHAR

STARTCHAR char74
ENCODING 74
SWIDTH 35 0
DWIDTH 5 0
BBX 6 9 -1 0
BITMAP
04
04
04
0C
08
08
08
C8
F0
ENDCHAR

STARTCHAR char75
ENCODING 75
SWIDTH 43 0
DWIDTH 6 0
BBX 7 9 0 0
BITMAP
44
4C
58
70
70
D0
90
88
88
ENDCHAR

STARTCHAR char76
ENCODING 76
SWIDTH 35 0
DWIDTH 5 0
BBX 4 9 0 0
BITMAP
40
40
40
40
40
80
80
80
F0
ENDCHAR

STARTCHAR char77
ENCODING 77
SWIDTH 64 0
DWIDTH 9 0
BBX 9 9 0 0
BITMAP
4100
6380
6300
6500
A500
AB00
AA00
B200
B200
ENDCHAR

STARTCHAR char78
ENCODING 78
SWIDTH 50 0
DWIDTH 7 0
BBX 7 9 0 0
BITMAP
62
62
52
54
54
94
94
94
88
ENDCHAR

STARTCHAR char79
ENCODING 79
SWIDTH 50 0
DWIDTH 7 0
BBX 7 9 0 0
BITMAP
3C
66
46
C6
C6
C6
C4
C8
70
ENDCHAR

STARTCHAR char80
ENCODING 80
SWIDTH 43 0
DWIDTH 6 0
BBX 7 9 0 0
BITMAP
7C
46
46
46
7C
80
80
80
80
ENDCHAR

STARTCHAR char81
ENCODING 81
SWIDTH 50 0
DWIDTH 7 0
BBX 7 10 0 -1
BITMAP
3C
66
46
C6
C6
C4
C4
D8
7C
08
ENDCHAR

STARTCHAR char82
ENCODING 82
SWIDTH 43 0
DWIDTH 6 0
BBX 7 9 0 0
BITMAP
7C
46
46
46
78
8C
8C
88
8C
ENDCHAR

STARTCHAR char83
ENCODING 83
SWIDTH 43 0
DWIDTH 6 0
BBX 7 9 -1 0
BITMAP
3C
66
60
60
3C
06
C6
C6
7C
ENDCHAR

STARTCHAR char84
ENCODING 84
SWIDTH 35 0
DWIDTH 5 0
BBX 5 9 1 0
BITMAP
F8
20
60
40
40
40
40
80
80
ENDCHAR

STARTCHAR char85
ENCODING 85
SWIDTH 50 0
DWIDTH 7 0
BBX 7 9 0 0
BITMAP
42
46
44
44
C4
84
C8
C8
70
ENDCHAR

STARTCHAR char86
ENCODING 86
SWIDTH 43 0
DWIDTH 6 0
BBX 6 9 1 0
BITMAP
C4
C8
C8
D0
D0
E0
E0
E0
C0
ENDCHAR

STARTCHAR char87
ENCODING 87
SWIDTH 57 0
DWIDTH 8 0
BBX 10 9 0 0
BITMAP
4C40
4CC0
CC80
DC80
DD00
ED00
AD00
EE00
CE00
ENDCHAR

STARTCHAR char88
ENCODING 88
SWIDTH 43 0
DWIDTH 6 0
BBX 7 9 -1 0
BITMAP
44
24
2C
38
10
30
68
48
8C
ENDCHAR

STARTCHAR char89
ENCODING 89
SWIDTH 35 0
DWIDTH 5 0
BBX 5 9 1 0
BITMAP
88
98
90
A0
60
40
40
C0
40
ENDCHAR

STARTCHAR char90
ENCODING 90
SWIDTH 35 0
DWIDTH 5 0
BBX 6 9 -1 0
BITMAP
7C
04
08
10
10
20
40
40
F8
ENDCHAR

STARTCHAR char91
ENCODING 91
SWIDTH 21 0
DWIDTH 3 0
BBX 5 11 -1 -2
BITMAP
18
10
20
20
20
20
40
40
40
40
E0
ENDCHAR

STARTCHAR char92
ENCODING 92
SWIDTH 28 0
DWIDTH 4 0
BBX 4 9 0 0
BITMAP
80
80
40
40
40
20
20
20
20
ENDCHAR

STARTCHAR char93
ENCODING 93
SWIDTH 21 0
DWIDTH 3 0
BBX 4 11 -1 -2
BITMAP
30
10
10
10
20
20
20
20
40
40
C0
ENDCHAR

STARTCHAR char94
ENCODING 94
SWIDTH 0 0
DWIDTH 0 0
BBX 3 1 0 10
BITMAP
E0
ENDCHAR

STARTCHAR char95
ENCODING 95
SWIDTH 50 0
DWIDTH 7 0
BBX 7 1 0 -2
BITMAP
FE
ENDCHAR

STARTCHAR char96
ENCODING 96
SWIDTH 0 0
DWIDTH 0 0
BBX 2 2 -1 7
BITMAP
40
40
ENDCHAR

STARTCHAR char97
ENCODING 97
SWIDTH 35 0
DWIDTH 5 0
BBX 6 7 -1 0
BITMAP
3C
6C
0C
3C
48
D8
EC
ENDCHAR

STARTCHAR char98
ENCODING 98
SWIDTH 35 0
DWIDTH 5 0
BBX 6 9 -1 0
BITMAP
20
20
38
2C
4C
4C
4C
48
B8
ENDCHAR

STARTCHAR char99
ENCODING 99
SWIDTH 35 0
DWIDTH 5 0
BBX 6 7 -1 0
BITMAP
38
64
C0
C0
C0
C8
70
ENDCHAR

STARTCHAR char100
ENCODING 100
SWIDTH 35 0
DWIDTH 5 0
BBX 7 9 -1 0
BITMAP
02
04
3C
6C
C4
C4
C8
C8
78
ENDCHAR

STARTCHAR char101
ENCODING 101
SWIDTH 35 0
DWIDTH 5 0
BBX 6 7 -1 0
BITMAP
38
6C
CC
FC
C0
C8
70
ENDCHAR

STARTCHAR char102
ENCODING 102
SWIDTH 21 0
DWIDTH 3 0
BBX 4 9 0 0
BITMAP
30
40
E0
40
40
40
80
80
80
ENDCHAR

STARTCHAR char103
ENCODING 103
SWIDTH 43 0
DWIDTH 6 0
BBX 6 9 -1 -2
BITMAP
3C
6C
C4
C4
C8
C8
78
10
70
ENDCHAR

STARTCHAR char104
ENCODING 104
SWIDTH 43 0
DWIDTH 6 0
BBX 6 9 0 0
BITMAP
40
40
7C
4C
4C
88
88
98
90
ENDCHAR

STARTCHAR char105
ENCODING 105
SWIDTH 14 0
DWIDTH 2 0
BBX 3 9 0 0
BITMAP
20
00
40
40
40
80
80
80
80
ENDCHAR

STARTCHAR char106
ENCODING 106
SWIDTH 14 0
DWIDTH 2 0
BBX 5 11 -2 -2
BITMAP
08
00
10
10
10
10
20
20
20
20
40
ENDCHAR

STARTCHAR char107
ENCODING 107
SWIDTH 35 0
DWIDTH 5 0
BBX 5 9 0 0
BITMAP
40
40
48
50
60
E0
A0
90
90
ENDCHAR

STARTCHAR char108
ENCODING 108
SWIDTH 14 0
DWIDTH 2 0
BBX 3 9 0 0
BITMAP
20
40
40
40
40
C0
80
80
80
ENDCHAR

STARTCHAR char109
ENCODING 109
SWIDTH 64 0
DWIDTH 9 0
BBX 9 7 0 0
BITMAP
7700
4980
8980
8980
9100
9300
9200
ENDCHAR

STARTCHAR char110
ENCODING 110
SWIDTH 43 0
DWIDTH 6 0
BBX 6 7 0 0
BITMAP
7C
4C
4C
88
88
98
90
ENDCHAR

STARTCHAR char111
ENCODING 111
SWIDTH 35 0
DWIDTH 5 0
BBX 6 7 -1 0
BITMAP
38
6C
CC
CC
CC
C8
78
ENDCHAR

STARTCHAR char112
ENCODING 112
SWIDTH 43 0
DWIDTH 6 0
BBX 7 9 -1 -2
BITMAP
3C
26
66
46
46
4C
78
80
80
ENDCHAR

STARTCHAR char113
ENCODING 113
SWIDTH 35 0
DWIDTH 5 0
BBX 6 9 -1 -2
BITMAP
3C
64
C4
C4
C8
C8
78
08
08
ENDCHAR

STARTCHAR char114
ENCODING 114
SWIDTH 21 0
DWIDTH 3 0
BBX 4 7 0 0
BITMAP
70
60
40
80
80
80
80
ENDCHAR

STARTCHAR char115
ENCODING 115
SWIDTH 35 0
DWIDTH 5 0
BBX 5 7 0 0
BITMAP
78
D8
C0
60
30
90
E0
ENDCHAR

STARTCHAR char116
ENCODING 116
SWIDTH 21 0
DWIDTH 3 0
BBX 3 8 0 0
BITMAP
40
E0
40
40
40
80
C0
C0
ENDCHAR

STARTCHAR char117
ENCODING 117
SWIDTH 43 0
DWIDTH 6 0
BBX 6 7 -1 0
BITMAP
24
64
44
44
C4
C8
F8
ENDCHAR

STARTCHAR char118
ENCODING 118
SWIDTH 35 0
DWIDTH 5 0
BBX 5 7 0 0
BITMAP
C8
D8
D0
F0
E0
E0
C0
ENDCHAR

STARTCHAR char119
ENCODING 119
SWIDTH 50 0
DWIDTH 7 0
BBX 7 7 0 0
BITMAP
D2
DA
FE
F4
FC
F8
D8
ENDCHAR

STARTCHAR char120
ENCODING 120
SWIDTH 28 0
DWIDTH 4 0
BBX 6 7 -1 0
BITMAP
64
28
38
10
30
50
88
ENDCHAR

STARTCHAR char121
ENCODING 121
SWIDTH 35 0
DWIDTH 5 0
BBX 6 9 -2 -2
BITMAP
34
34
28
28
30
30
30
20
60
ENDCHAR

STARTCHAR char122
ENCODING 122
SWIDTH 28 0
DWIDTH 4 0
BBX 6 7 -1 0
BITMAP
3C
08
10
30
20
40
F0
ENDCHAR

STARTCHAR char123
ENCODING 123
SWIDTH 28 0
DWIDTH 4 0
BBX 3 12 1 -3
BITMAP
60
C0
C0
40
C0
80
80
80
C0
C0
C0
E0
ENDCHAR

STARTCHAR char124
ENCODING 124
SWIDTH 21 0
DWIDTH 3 0
BBX 2 9 1 0
BITMAP
C0
C0
C0
C0
C0
C0
C0
C0
C0
ENDCHAR

STARTCHAR char125
ENCODING 125
SWIDTH 28 0
DWIDTH 4 0
BBX 3 12 1 -3
BITMAP
80
C0
C0
C0
C0
60
C0
C0
C0
C0
C0
C0
ENDCHAR

STARTCHAR char126
ENCODING 126
SWIDTH 0 0
DWIDTH 0 0
BBX 3 1 0 10
BITMAP
E0
ENDCHAR

STARTCHAR char128
ENCODING 128
SWIDTH 50 0
DWIDTH 7 0
BBX 6 9 0 0
BITMAP
3C
64
44
F8
F8
40
44
C8
78
ENDCHAR

STARTCHAR char130
ENCODING 130
SWIDTH 14 0
DWIDTH 2 0
BBX 1 3 0 -2
BITMAP
80
80
80
ENDCHAR

STARTCHAR char131
ENCODING 131
SWIDTH 0 0
DWIDTH 0 0
BBX 3 1 0 10
BITMAP
E0
ENDCHAR

STARTCHAR char132
ENCODING 132
SWIDTH 28 0
DWIDTH 4 0
BBX 4 3 -1 -2
BITMAP
50
90
A0
ENDCHAR

STARTCHAR char133
ENCODING 133
SWIDTH 20 0
DWIDTH 13 0
BBX 11 1 1 0
BITMAP
CC60
ENDCHAR

STARTCHAR char134
ENCODING 134
SWIDTH 35 0
DWIDTH 5 0
BBX 5 11 0 -2
BITMAP
10
10
10
F8
20
20
20
20
40
40
40
ENDCHAR

STARTCHAR char135
ENCODING 135
SWIDTH 13 0
DWIDTH 12 0
BBX 0 0 0 0
BITMAP
ENDCHAR

STARTCHAR char136
ENCODING 136
SWIDTH 0 0
DWIDTH 0 0
BBX 4 2 -1 7
BITMAP
60
50
ENDCHAR

STARTCHAR char137
ENCODING 137
SWIDTH 13 0
DWIDTH 12 0
BBX 0 0 0 0
BITMAP
ENDCHAR

STARTCHAR char139
ENCODING 139
SWIDTH 28 0
DWIDTH 4 0
BBX 2 5 1 1
BITMAP
40
40
80
40
40
ENDCHAR

STARTCHAR char140
ENCODING 140
SWIDTH 64 0
DWIDTH 9 0
BBX 10 9 0 0
BITMAP
3BC0
6400
4400
C400
C780
C400
C800
C800
7F00
ENDCHAR

STARTCHAR char142
ENCODING 142
SWIDTH 13 0
DWIDTH 12 0
BBX 0 0 0 0
BITMAP
ENDCHAR

STARTCHAR char143
ENCODING 143
SWIDTH 13 0
DWIDTH 12 0
BBX 0 0 0 0
BITMAP
ENDCHAR

STARTCHAR char144
ENCODING 144
SWIDTH 13 0
DWIDTH 12 0
BBX 0 0 0 0
BITMAP
ENDCHAR

STARTCHAR char145
ENCODING 145
SWIDTH 14 0
DWIDTH 2 0
BBX 2 2 1 6
BITMAP
80
80
ENDCHAR

STARTCHAR char146
ENCODING 146
SWIDTH 14 0
DWIDTH 2 0
BBX 2 3 1 6
BITMAP
80
80
80
ENDCHAR

STARTCHAR char147
ENCODING 147
SWIDTH 28 0
DWIDTH 4 0
BBX 4 3 1 6
BITMAP
20
A0
A0
ENDCHAR

STARTCHAR char148
ENCODING 148
SWIDTH 28 0
DWIDTH 4 0
BBX 3 3 1 6
BITMAP
A0
A0
A0
ENDCHAR

STARTCHAR char149
ENCODING 149
SWIDTH 28 0
DWIDTH 4 0
BBX 3 3 1 3
BITMAP
E0
E0
E0
ENDCHAR

STARTCHAR char150
ENCODING 150
SWIDTH 43 0
DWIDTH 6 0
BBX 5 1 0 3
BITMAP
F8
ENDCHAR

STARTCHAR char151
ENCODING 151
SWIDTH 43 0
DWIDTH 6 0
BBX 6 1 0 3
BITMAP
FC
ENDCHAR

STARTCHAR char152
ENCODING 152
SWIDTH 0 0
DWIDTH 0 0
BBX 4 1 -1 8
BITMAP
70
ENDCHAR

STARTCHAR char153
ENCODING 153
SWIDTH 6 0
DWIDTH 11 0
BBX 10 5 0 3
BITMAP
FCC0
66C0
6740
67C0
6DC0
ENDCHAR

STARTCHAR char155
ENCODING 155
SWIDTH 28 0
DWIDTH 4 0
BBX 2 5 1 1
BITMAP
80
80
40
C0
80
ENDCHAR

STARTCHAR char156
ENCODING 156
SWIDTH 64 0
DWIDTH 9 0
BBX 10 7 -1 0
BITMAP
3B80
6CC0
C4C0
C7C0
CC00
CC80
7700
ENDCHAR

STARTCHAR char157
ENCODING 157
SWIDTH 13 0
DWIDTH 12 0
BBX 0 0 0 0
BITMAP
ENDCHAR

STARTCHAR char159
ENCODING 159
SWIDTH 35 0
DWIDTH 5 0
BBX 5 11 1 0
BITMAP
50
00
88
98
90
A0
60
40
40
C0
40
ENDCHAR

STARTCHAR char160
ENCODING 160
SWIDTH 21 0
DWIDTH 3 0
BBX 0 0 0 0
BITMAP
ENDCHAR

STARTCHAR char161
ENCODING 161
SWIDTH 21 0
DWIDTH 3 0
BBX 3 9 0 0
BITMAP
20
00
20
20
40
40
40
C0
40
ENDCHAR

STARTCHAR char162
ENCODING 162
SWIDTH 35 0
DWIDTH 5 0
BBX 6 9 -1 -1
BITMAP
08
18
7C
D0
D0
D0
D8
78
20
ENDCHAR

STARTCHAR char163
ENCODING 163
SWIDTH 43 0
DWIDTH 6 0
BBX 6 9 0 0
BITMAP
38
4C
6C
60
F0
60
60
C0
F8
ENDCHAR

STARTCHAR char164
ENCODING 164
SWIDTH 0 0
DWIDTH 0 0
BBX 2 1 1 10
BITMAP
80
ENDCHAR

STARTCHAR char165
ENCODING 165
SWIDTH 0 0
DWIDTH 0 0
BBX 3 1 0 10
BITMAP
E0
ENDCHAR

STARTCHAR char166
ENCODING 166
SWIDTH 13 0
DWIDTH 12 0
BBX 0 0 0 0
BITMAP
ENDCHAR

STARTCHAR char167
ENCODING 167
SWIDTH 43 0
DWIDTH 6 0
BBX 7 11 -1 -2
BITMAP
1C
36
30
38
6C
66
36
1C
0C
CC
78
ENDCHAR

STARTCHAR char168
ENCODING 168
SWIDTH 0 0
DWIDTH 0 0
BBX 4 1 -1 8
BITMAP
50
ENDCHAR

STARTCHAR char169
ENCODING 169
SWIDTH 71 0
DWIDTH 10 0
BBX 10 8 -1 0
BITMAP
1E00
2F80
51C0
F0C0
F0C0
73C0
2D80
1E00
ENDCHAR

STARTCHAR char170
ENCODING 170
SWIDTH 0 0
DWIDTH 0 0
BBX 3 1 0 10
BITMAP
A0
ENDCHAR

STARTCHAR char171
ENCODING 171
SWIDTH 35 0
DWIDTH 5 0
BBX 5 5 0 1
BITMAP
28
50
90
50
50
ENDCHAR

STARTCHAR char172
ENCODING 172
SWIDTH 64 0
DWIDTH 9 0
BBX 8 4 0 0
BITMAP
FF
03
03
03
ENDCHAR

STARTCHAR char173
ENCODING 173
SWIDTH 13 0
DWIDTH 12 0
BBX 0 0 0 0
BITMAP
ENDCHAR

STARTCHAR char174
ENCODING 174
SWIDTH 71 0
DWIDTH 10 0
BBX 10 8 -1 0
BITMAP
1E00
3F80
5B80
DBC0
DEC0
5AC0
3B80
1E00
ENDCHAR

STARTCHAR char175
ENCODING 175
SWIDTH 13 0
DWIDTH 12 0
BBX 0 0 0 0
BITMAP
ENDCHAR

STARTCHAR char176
ENCODING 176
SWIDTH 21 0
DWIDTH 3 0
BBX 5 5 0 4
BITMAP
20
50
D8
58
20
ENDCHAR

STARTCHAR char177
ENCODING 177
SWIDTH 50 0
DWIDTH 7 0
BBX 6 8 0 0
BITMAP
30
30
30
FC
30
30
30
FC
ENDCHAR

STARTCHAR char179
ENCODING 179
SWIDTH 13 0
DWIDTH 12 0
BBX 0 0 0 0
BITMAP
ENDCHAR

STARTCHAR char180
ENCODING 180
SWIDTH 0 0
DWIDTH 0 0
BBX 3 2 0 7
BITMAP
40
40
ENDCHAR

STARTCHAR char182
ENCODING 182
SWIDTH 64 0
DWIDTH 9 0
BBX 6 11 1 -2
BITMAP
7C
EC
EC
EC
6C
6C
6C
6C
6C
6C
6C
ENDCHAR

STARTCHAR char183
ENCODING 183
SWIDTH 14 0
DWIDTH 2 0
BBX 2 1 1 3
BITMAP
C0
ENDCHAR

STARTCHAR char184
ENCODING 184
SWIDTH 0 0
DWIDTH 0 0
BBX 1 3 -1 -3
BITMAP
80
80
80
ENDCHAR

STARTCHAR char186
ENCODING 186
SWIDTH 0 0
DWIDTH 0 0
BBX 3 1 0 10
BITMAP
E0
ENDCHAR

STARTCHAR char187
ENCODING 187
SWIDTH 35 0
DWIDTH 5 0
BBX 5 5 0 1
BITMAP
50
50
50
D0
A0
ENDCHAR

STARTCHAR char189
ENCODING 189
SWIDTH 13 0
DWIDTH 12 0
BBX 0 0 0 0
BITMAP
ENDCHAR

STARTCHAR char190
ENCODING 190
SWIDTH 13 0
DWIDTH 12 0
BBX 0 0 0 0
BITMAP
ENDCHAR

STARTCHAR char191
ENCODING 191
SWIDTH 35 0
DWIDTH 5 0
BBX 5 9 -1 0
BITMAP
08
00
08
10
30
60
C0
C8
70
ENDCHAR

STARTCHAR char192
ENCODING 192
SWIDTH 43 0
DWIDTH 6 0
BBX 6 11 -1 0
BITMAP
08
00
08
14
14
34
24
64
7C
C4
8C
ENDCHAR

STARTCHAR char193
ENCODING 193
SWIDTH 43 0
DWIDTH 6 0
BBX 6 11 -1 0
BITMAP
08
00
08
18
18
28
28
68
7C
C4
8C
ENDCHAR

STARTCHAR char194
ENCODING 194
SWIDTH 43 0
DWIDTH 6 0
BBX 6 11 -1 0
BITMAP
0C
00
08
14
14
24
24
64
7C
C4
8C
ENDCHAR

STARTCHAR char195
ENCODING 195
SWIDTH 43 0
DWIDTH 6 0
BBX 7 11 -1 0
BITMAP
1C
00
08
14
14
24
24
64
7C
C4
8C
ENDCHAR

STARTCHAR char196
ENCODING 196
SWIDTH 43 0
DWIDTH 6 0
BBX 7 11 -1 0
BITMAP
14
00
08
14
14
24
24
64
7C
C4
8C
ENDCHAR

STARTCHAR char197
ENCODING 197
SWIDTH 43 0
DWIDTH 6 0
BBX 6 12 -1 0
BITMAP
1C
1C
1C
08
14
14
14
24
64
7C
C4
8C
ENDCHAR

STARTCHAR char198
ENCODING 198
SWIDTH 64 0
DWIDTH 9 0
BBX 10 9 0 0
BITMAP
07C0
0C00
1400
1400
2780
3C00
4800
8800
8F00
ENDCHAR

STARTCHAR char199
ENCODING 199
SWIDTH 43 0
DWIDTH 6 0
BBX 6 12 0 -3
BITMAP
38
64
44
C0
C0
C0
C8
C8
70
20
20
40
ENDCHAR

STARTCHAR char200
ENCODING 200
SWIDTH 35 0
DWIDTH 5 0
BBX 6 11 0 0
BITMAP
10
00
7C
40
40
40
78
80
80
80
F0
ENDCHAR

STARTCHAR char201
ENCODING 201
SWIDTH 35 0
DWIDTH 5 0
BBX 6 11 0 0
BITMAP
08
00
7C
40
40
40
78
80
80
80
F0
ENDCHAR

STARTCHAR char202
ENCODING 202
SWIDTH 35 0
DWIDTH 5 0
BBX 6 11 0 0
BITMAP
18
00
7C
40
40
40
78
80
80
80
F0
ENDCHAR

STARTCHAR char203
ENCODING 203
SWIDTH 35 0
DWIDTH 5 0
BBX 6 11 0 0
BITMAP
28
00
7C
40
40
40
78
80
80
80
F0
ENDCHAR

STARTCHAR char204
ENCODING 204
SWIDTH 21 0
DWIDTH 3 0
BBX 3 11 0 0
BITMAP
40
00
20
40
40
40
40
40
80
80
80
ENDCHAR

STARTCHAR char205
ENCODING 205
SWIDTH 21 0
DWIDTH 3 0
BBX 4 11 0 0
BITMAP
20
00
20
40
40
40
40
40
80
80
80
ENDCHAR

STARTCHAR char206
ENCODING 206
SWIDTH 21 0
DWIDTH 3 0
BBX 4 11 0 0
BITMAP
70
00
20
40
40
40
40
40
80
80
80
ENDCHAR

STARTCHAR char207
ENCODING 207
SWIDTH 21 0
DWIDTH 3 0
BBX 4 11 0 0
BITMAP
50
00
20
40
40
40
40
40
80
80
80
ENDCHAR

STARTCHAR char209
ENCODING 209
SWIDTH 50 0
DWIDTH 7 0
BBX 7 11 0 0
BITMAP
1C
00
62
62
52
54
54
94
94
94
88
ENDCHAR

STARTCHAR char210
ENCODING 210
SWIDTH 50 0
DWIDTH 7 0
BBX 7 11 0 0
BITMAP
10
00
3C
66
46
C6
C6
C6
C4
C8
70
ENDCHAR

STARTCHAR char211
ENCODING 211
SWIDTH 50 0
DWIDTH 7 0
BBX 7 11 0 0
BITMAP
0C
00
3C
66
46
C6
C6
C6
C4
C8
70
ENDCHAR

STARTCHAR char212
ENCODING 212
SWIDTH 50 0
DWIDTH 7 0
BBX 7 11 0 0
BITMAP
1C
00
3C
66
46
C6
C6
C6
C4
C8
70
ENDCHAR

STARTCHAR char213
ENCODING 213
SWIDTH 50 0
DWIDTH 7 0
BBX 7 11 0 0
BITMAP
1C
00
3C
66
46
C6
C6
C6
C4
C8
70
ENDCHAR

STARTCHAR char214
ENCODING 214
SWIDTH 50 0
DWIDTH 7 0
BBX 7 11 0 0
BITMAP
16
00
3C
66
46
C6
C6
C6
C4
C8
70
ENDCHAR

STARTCHAR char216
ENCODING 216
SWIDTH 50 0
DWIDTH 7 0
BBX 8 9 0 0
BITMAP
3D
62
46
CA
D2
E4
E4
CC
B8
ENDCHAR

STARTCHAR char217
ENCODING 217
SWIDTH 50 0
DWIDTH 7 0
BBX 7 11 0 0
BITMAP
10
00
42
44
44
44
C4
84
C8
C8
70
ENDCHAR

STARTCHAR char218
ENCODING 218
SWIDTH 50 0
DWIDTH 7 0
BBX 7 11 0 0
BITMAP
08
00
42
44
44
44
C4
84
C8
C8
70
ENDCHAR

STARTCHAR char219
ENCODING 219
SWIDTH 50 0
DWIDTH 7 0
BBX 7 11 0 0
BITMAP
1C
00
42
44
44
44
C4
84
C8
C8
70
ENDCHAR

STARTCHAR char220
ENCODING 220
SWIDTH 50 0
DWIDTH 7 0
BBX 7 11 0 0
BITMAP
14
00
42
44
44
44
C4
84
C8
C8
70
ENDCHAR

STARTCHAR char221
ENCODING 221
SWIDTH 13 0
DWIDTH 12 0
BBX 0 0 0 0
BITMAP
ENDCHAR

STARTCHAR char222
ENCODING 222
SWIDTH 13 0
DWIDTH 12 0
BBX 0 0 0 0
BITMAP
ENDCHAR

STARTCHAR char223
ENCODING 223
SWIDTH 43 0
DWIDTH 6 0
BBX 6 9 0 0
BITMAP
38
4C
4C
58
58
88
88
98
B0
ENDCHAR

STARTCHAR char224
ENCODING 224
SWIDTH 35 0
DWIDTH 5 0
BBX 6 9 -1 0
BITMAP
10
10
3C
6C
0C
3C
48
D8
EC
ENDCHAR

STARTCHAR char225
ENCODING 225
SWIDTH 35 0
DWIDTH 5 0
BBX 6 9 -1 0
BITMAP
08
08
3C
6C
0C
3C
48
D8
EC
ENDCHAR

STARTCHAR char226
ENCODING 226
SWIDTH 35 0
DWIDTH 5 0
BBX 6 9 -1 0
BITMAP
18
18
3C
6C
0C
3C
48
D8
EC
ENDCHAR

STARTCHAR char227
ENCODING 227
SWIDTH 35 0
DWIDTH 5 0
BBX 6 9 -1 0
BITMAP
1C
00
3C
6C
0C
3C
48
D8
EC
ENDCHAR

STARTCHAR char228
ENCODING 228
SWIDTH 35 0
DWIDTH 5 0
BBX 6 9 -1 0
BITMAP
2C
00
38
6C
0C
3C
C8
D8
EC
ENDCHAR

STARTCHAR char229
ENCODING 229
SWIDTH 35 0
DWIDTH 5 0
BBX 6 10 -1 0
BITMAP
38
3C
38
38
6C
0C
3C
C8
C8
FC
ENDCHAR

STARTCHAR char230
ENCODING 230
SWIDTH 57 0
DWIDTH 8 0
BBX 9 7 -1 0
BITMAP
3B00
6D80
0980
3F80
C800
C900
F600
ENDCHAR

STARTCHAR char231
ENCODING 231
SWIDTH 35 0
DWIDTH 5 0
BBX 6 10 -1 -3
BITMAP
38
64
C0
C0
C0
C8
70
20
20
40
ENDCHAR

STARTCHAR char232
ENCODING 232
SWIDTH 35 0
DWIDTH 5 0
BBX 6 9 -1 0
BITMAP
10
10
38
6C
CC
FC
C0
C8
70
ENDCHAR

STARTCHAR char233
ENCODING 233
SWIDTH 35 0
DWIDTH 5 0
BBX 6 9 -1 0
BITMAP
08
08
38
6C
CC
FC
C0
C8
70
ENDCHAR

STARTCHAR char234
ENCODING 234
SWIDTH 35 0
DWIDTH 5 0
BBX 6 9 -1 0
BITMAP
18
18
38
6C
CC
FC
C0
C8
70
ENDCHAR

STARTCHAR char235
ENCODING 235
SWIDTH 35 0
DWIDTH 5 0
BBX 6 9 -1 0
BITMAP
14
00
38
6C
CC
FC
C0
C8
70
ENDCHAR

STARTCHAR char236
ENCODING 236
SWIDTH 14 0
DWIDTH 2 0
BBX 2 9 0 0
BITMAP
C0
40
40
40
40
C0
80
80
80
ENDCHAR

STARTCHAR char237
ENCODING 237
SWIDTH 14 0
DWIDTH 2 0
BBX 3 9 0 0
BITMAP
20
40
40
40
40
80
80
80
80
ENDCHAR

STARTCHAR char238
ENCODING 238
SWIDTH 14 0
DWIDTH 2 0
BBX 3 9 0 0
BITMAP
60
A0
40
40
40
C0
80
80
80
ENDCHAR

STARTCHAR char239
ENCODING 239
SWIDTH 14 0
DWIDTH 2 0
BBX 4 9 0 0
BITMAP
A0
00
40
40
40
C0
80
80
80
ENDCHAR

STARTCHAR char241
ENCODING 241
SWIDTH 43 0
DWIDTH 6 0
BBX 6 9 0 0
BITMAP
38
00
7C
4C
4C
88
88
98
90
ENDCHAR

STARTCHAR char242
ENCODING 242
SWIDTH 35 0
DWIDTH 5 0
BBX 6 9 -1 0
BITMAP
10
10
38
6C
CC
CC
CC
C8
78
ENDCHAR

STARTCHAR char243
ENCODING 243
SWIDTH 35 0
DWIDTH 5 0
BBX 6 9 -1 0
BITMAP
08
08
38
6C
CC
CC
CC
C8
78
ENDCHAR

STARTCHAR char244
ENCODING 244
SWIDTH 35 0
DWIDTH 5 0
BBX 6 9 -1 0
BITMAP
08
1C
38
6C
CC
CC
CC
C8
78
ENDCHAR

STARTCHAR char245
ENCODING 245
SWIDTH 35 0
DWIDTH 5 0
BBX 6 9 -1 0
BITMAP
1C
00
38
6C
CC
CC
CC
C8
78
ENDCHAR

STARTCHAR char246
ENCODING 246
SWIDTH 35 0
DWIDTH 5 0
BBX 6 9 -1 0
BITMAP
1C
00
38
6C
CC
CC
CC
C8
78
ENDCHAR

STARTCHAR char247
ENCODING 247
SWIDTH 50 0
DWIDTH 7 0
BBX 6 4 0 1
BITMAP
30
FC
00
30
ENDCHAR

STARTCHAR char248
ENCODING 248
SWIDTH 35 0
DWIDTH 5 0
BBX 6 7 -1 0
BITMAP
1C
24
2C
54
64
48
78
ENDCHAR

STARTCHAR char249
ENCODING 249
SWIDTH 43 0
DWIDTH 6 0
BBX 6 9 -1 0
BITMAP
10
10
24
24
64
44
C4
C8
F8
ENDCHAR

STARTCHAR char250
ENCODING 250
SWIDTH 43 0
DWIDTH 6 0
BBX 6 9 -1 0
BITMAP
08
08
24
24
64
44
C4
C8
F8
ENDCHAR

STARTCHAR char251
ENCODING 251
SWIDTH 43 0
DWIDTH 6 0
BBX 6 9 -1 0
BITMAP
08
14
24
24
64
44
C4
C8
F8
ENDCHAR

STARTCHAR char252
ENCODING 252
SWIDTH 43 0
DWIDTH 6 0
BBX 6 9 -1 0
BITMAP
14
00
24
24
44
44
C4
C8
F8
ENDCHAR

STARTCHAR char255
ENCODING 255
SWIDTH 35 0
DWIDTH 5 0
BBX 6 11 -2 -2
BITMAP
14
00
34
34
28
28
30
30
30
20
60
ENDCHAR
ENDFONT
